<?xml version="1.0" encoding="utf-8"?>
<!-- Generator: Adobe Illustrator 24.0.1, SVG Export Plug-In . SVG Version: 6.00 Build 0)  -->
<svg version="1.1" id="Layer_1" xmlns="http://www.w3.org/2000/svg" xmlns:xlink="http://www.w3.org/1999/xlink" x="0px" y="0px"
	 viewBox="0 0 448 11" style="enable-background:new 0 0 448 11;" xml:space="preserve">
<style type="text/css">
	.st0{fill:none;stroke:#FFFFFF;}
</style>
<title>Group 13</title>
<desc>Created with Sketch.</desc>
<g id="Artboard" transform="translate(-208.000000, -1191.000000)">
	<g id="Group-13" transform="translate(209.000000, 1192.000000)">
		<path id="Stroke-31" class="st0" d="M223,4.5c-3.5,6-12.4,6-15.9,0c-3.5-6-12.4-6-15.9,0c-3.5,6-12.4,6-15.9,0
			c-3.5-6-12.4-6-15.9,0c-3.5,6-12.4,6-15.9,0c-3.5-6-12.4-6-15.9,0c-3.5,6-12.4,6-15.9,0c-3.5-6-12.4-6-15.9,0
			c-3.5,6-12.4,6-15.9,0c-3.5-6-12.4-6-15.9,0c-3.5,6-12.4,6-15.9,0c-3.5-6-12.4-6-15.9,0s-12.4,6-15.9,0c-3.5-6-12.4-6-15.9,0"/>
		<path id="Stroke-31-Copy" class="st0" d="M446,4.5c-3.5,6-12.4,6-15.9,0c-3.5-6-12.4-6-15.9,0c-3.5,6-12.4,6-15.9,0
			c-3.5-6-12.4-6-15.9,0c-3.5,6-12.4,6-15.9,0c-3.5-6-12.4-6-15.9,0c-3.5,6-12.4,6-15.9,0c-3.5-6-12.4-6-15.9,0
			c-3.5,6-12.4,6-15.9,0c-3.5-6-12.4-6-15.9,0c-3.5,6-12.4,6-15.9,0c-3.5-6-12.4-6-15.9,0c-3.5,6-12.4,6-15.9,0
			c-3.5-6-12.4-6-15.9,0"/>
	</g>
</g>
</svg>
